<svg xmlns="http://www.w3.org/2000/svg" viewBox="0 0 1024 1024"><defs><style>.a{fill:#ff495c;}.b{fill:none;stroke:#ff495c;stroke-linecap:square;stroke-linejoin:round;stroke-width:24px;}</style></defs><title>blank_diamant_outline</title><path class="a" d="M424.7273,272L861.0908,424.7273V599.2727L599.2727,752,162.9092,599.2727V424.7273L424.7273,272m0.001-24a23.9966,23.9966,0,0,0-12.0939,3.2694L150.8163,403.9966a24,24,0,0,0-11.9071,20.7307V599.2727a24,24,0,0,0,16.0715,22.6526L591.3442,774.6526a23.9995,23.9995,0,0,0,20.0214-1.9219L873.1837,620.0034a24,24,0,0,0,11.9071-20.7307V424.7273a24,24,0,0,0-16.0715-22.6526L432.6558,249.3474A23.99,23.99,0,0,0,424.7283,248h0Z"/><polyline class="b" points="424.727 272 555.636 424.727 468.364 599.273 599.273 752"/><line class="b" x1="861.0909" y1="424.7273" x2="162.9091" y2="424.7273"/><line class="b" x1="162.9091" y1="599.2727" x2="861.0909" y2="599.2727"/></svg>